<svg width="20" height="20" viewBox="0 0 20 20" fill="none" xmlns="http://www.w3.org/2000/svg">
<path opacity="0.8" fill-rule="evenodd" clip-rule="evenodd" d="M16.2943 12.8567C16.2943 15.2397 14.3336 17.1715 11.9149 17.1715H3.64258V14.295H11.9149C12.7211 14.295 13.3747 13.6511 13.3747 12.8567C13.3747 12.0624 12.7211 11.4185 11.9149 11.4185H8.99523V8.54203H11.9149C12.7211 8.54203 13.3747 7.8981 13.3747 7.10379C13.3747 6.30947 12.7211 5.66554 11.9149 5.66554H3.64258V2.78906H11.9149C14.3336 2.78906 16.2943 4.72083 16.2943 7.10379C16.2943 8.20886 15.8726 9.21691 15.1792 9.98027C15.8726 10.7436 16.2943 11.7517 16.2943 12.8567Z" fill="white"/>
<path opacity="0.12" d="M3.64258 14.295H10.7476C9.23841 16.0417 6.83557 17.1715 4.12918 17.1715C3.96583 17.1715 3.80359 17.1674 3.64258 17.1592V14.295ZM12.236 11.4185H9.48184V8.54203H12.236C12.3445 9.00674 12.4015 9.48772 12.4015 9.98027C12.4015 10.4728 12.3445 10.9538 12.236 11.4185ZM10.7476 5.66554H3.64258V2.8013C3.80359 2.79318 3.96583 2.78906 4.12918 2.78906C6.83557 2.78906 9.23841 3.91888 10.7476 5.66554Z" fill="black"/>
<path d="M3.64258 2.78906C7.67374 2.78906 10.9417 6.00867 10.9417 9.98027C10.9417 13.9519 7.67374 17.1715 3.64258 17.1715V14.295C6.06128 14.295 8.02202 12.3632 8.02202 9.98027C8.02202 7.59731 6.06128 5.66554 3.64258 5.66554V2.78906Z" fill="white"/>
</svg>
