<svg width="20" height="20" viewBox="0 0 20 20" fill="none" xmlns="http://www.w3.org/2000/svg">
<g clip-path="url(#clip0_7790_7382)">
<path d="M14.8519 5.62089C13.9594 5.21839 13.0027 4.92089 12.0023 4.75172C11.9934 4.75001 11.9841 4.75111 11.9759 4.75488C11.9676 4.75864 11.9608 4.76487 11.9562 4.77272C11.8337 4.98797 11.6972 5.26855 11.6015 5.49022C10.5405 5.33169 9.46181 5.33169 8.40078 5.49022C8.29423 5.24456 8.17407 5.00502 8.04086 4.77272C8.03635 4.76478 8.02952 4.7584 8.02128 4.75444C8.01305 4.75048 8.00381 4.74912 7.99478 4.75055C6.99495 4.91972 6.03828 5.21722 5.1452 5.6203C5.13751 5.62353 5.131 5.62902 5.12653 5.63605C3.3112 8.3048 2.81361 10.9076 3.05803 13.4778C3.05871 13.4841 3.06066 13.4902 3.06377 13.4957C3.06688 13.5012 3.07108 13.506 3.07611 13.5099C4.13568 14.2813 5.31748 14.8689 6.57203 15.2482C6.58078 15.2509 6.59013 15.2509 6.59887 15.2482C6.60761 15.2455 6.61534 15.2402 6.62103 15.2331C6.89099 14.872 7.13022 14.489 7.3362 14.088C7.33906 14.0825 7.3407 14.0765 7.34103 14.0703C7.34135 14.0641 7.34035 14.0579 7.33808 14.0522C7.33581 14.0464 7.33234 14.0412 7.32788 14.0369C7.32343 14.0326 7.31811 14.0294 7.31228 14.0273C6.93545 13.8854 6.57033 13.7141 6.22028 13.5151C6.21399 13.5115 6.20869 13.5065 6.20486 13.5003C6.20102 13.4942 6.19877 13.4872 6.19831 13.4799C6.19785 13.4727 6.19918 13.4655 6.20221 13.4589C6.20523 13.4523 6.20983 13.4466 6.21561 13.4422C6.28911 13.388 6.36261 13.3314 6.43261 13.2748C6.43891 13.2697 6.4465 13.2665 6.45454 13.2654C6.46257 13.2644 6.47073 13.2656 6.47811 13.269C8.76886 14.298 11.2498 14.298 13.5137 13.269C13.5211 13.2654 13.5293 13.2641 13.5375 13.265C13.5456 13.2659 13.5534 13.2691 13.5598 13.2742C13.6298 13.3314 13.7027 13.388 13.7768 13.4422C13.7826 13.4465 13.7873 13.4521 13.7904 13.4587C13.7935 13.4652 13.795 13.4724 13.7946 13.4796C13.7943 13.4868 13.7922 13.4939 13.7884 13.5001C13.7847 13.5063 13.7795 13.5114 13.7733 13.5151C13.4244 13.7158 13.0616 13.8856 12.6807 14.0267C12.6748 14.0288 12.6695 14.0322 12.6651 14.0365C12.6606 14.0409 12.6571 14.0461 12.6549 14.0519C12.6526 14.0577 12.6516 14.0639 12.6519 14.0702C12.6523 14.0764 12.6539 14.0824 12.6568 14.088C12.8668 14.4887 13.1071 14.8702 13.3714 15.2325C13.3769 15.2399 13.3845 15.2455 13.3933 15.2484C13.4021 15.2513 13.4115 15.2515 13.4204 15.2488C14.6771 14.8706 15.8608 14.2827 16.9215 13.5099C16.9267 13.5063 16.931 13.5016 16.9343 13.4962C16.9375 13.4907 16.9395 13.4847 16.9402 13.4784C17.2319 10.5069 16.4514 7.92505 14.8699 5.63722C14.8661 5.62979 14.8597 5.62399 14.8519 5.62089ZM7.67861 11.9127C6.98911 11.9127 6.42036 11.2891 6.42036 10.5244C6.42036 9.75905 6.97803 9.13605 7.67861 9.13605C8.38445 9.13605 8.94795 9.7643 8.93686 10.5244C8.93686 11.2897 8.3792 11.9127 7.67861 11.9127ZM12.3307 11.9127C11.6406 11.9127 11.0724 11.2891 11.0724 10.5244C11.0724 9.75905 11.6295 9.13605 12.3307 9.13605C13.0365 9.13605 13.6 9.7643 13.5889 10.5244C13.5889 11.2897 13.0371 11.9127 12.3307 11.9127Z" fill="white"/>
</g>
<defs>
<clipPath id="clip0_7790_7382">
<rect width="14" height="14" fill="white" transform="translate(3 3)"/>
</clipPath>
</defs>
</svg>
