<svg width="635" height="74" viewBox="0 0 635 74" fill="none" xmlns="http://www.w3.org/2000/svg">
<path d="M96.3261 58V30.392C96.3261 28.2267 96.8487 26.2667 97.8941 24.512C98.9767 22.7573 100.414 21.376 102.206 20.368C104.035 19.3227 106.07 18.8 108.31 18.8H122.926V26.64H109.486C108.441 26.64 107.545 27.0133 106.798 27.76C106.089 28.5067 105.734 29.4213 105.734 30.504V36.16H121.022V43.944H105.734V58H96.3261Z" fill="#0090FF"/>
<path d="M130.634 58V29.272H139.37V58H130.634ZM135.002 26.024C133.621 26.024 132.426 25.52 131.418 24.512C130.41 23.504 129.906 22.3093 129.906 20.928C129.906 19.5467 130.41 18.352 131.418 17.344C132.426 16.2987 133.621 15.776 135.002 15.776C136.383 15.776 137.578 16.2987 138.586 17.344C139.594 18.352 140.098 19.5467 140.098 20.928C140.098 22.3093 139.594 23.504 138.586 24.512C137.578 25.52 136.383 26.024 135.002 26.024Z" fill="#0090FF"/>
<path d="M148.528 58V17.12H157.208V58H148.528Z" fill="#0090FF"/>
<path d="M181.429 58C178.181 58 175.325 57.4027 172.861 56.208C170.397 54.976 168.475 53.296 167.093 51.168C165.749 49.0027 165.077 46.5013 165.077 43.664C165.077 40.528 165.731 37.84 167.037 35.6C168.344 33.36 170.08 31.6427 172.245 30.448C174.448 29.216 176.875 28.6 179.525 28.6C182.549 28.6 185.069 29.2347 187.085 30.504C189.139 31.7733 190.688 33.5093 191.733 35.712C192.779 37.8773 193.301 40.36 193.301 43.16C193.301 43.6453 193.264 44.224 193.189 44.896C193.152 45.5307 193.096 46.0347 193.021 46.408H174.205C174.429 47.3787 174.859 48.2 175.493 48.872C176.128 49.544 176.931 50.048 177.901 50.384C178.872 50.6827 179.955 50.832 181.149 50.832H189.941V58H181.429ZM173.981 40.976H184.901C184.827 40.3787 184.715 39.8 184.565 39.24C184.416 38.68 184.173 38.1947 183.837 37.784C183.539 37.336 183.184 36.9627 182.773 36.664C182.363 36.328 181.877 36.0667 181.317 35.88C180.795 35.6933 180.197 35.6 179.525 35.6C178.667 35.6 177.901 35.7493 177.229 36.048C176.557 36.3467 175.997 36.7573 175.549 37.28C175.101 37.7653 174.747 38.344 174.485 39.016C174.261 39.6507 174.093 40.304 173.981 40.976Z" fill="#0090FF"/>
<path d="M228.935 58.672C226.658 58.672 224.567 58.168 222.663 57.16C220.796 56.152 219.303 54.752 218.183 52.96C217.1 51.168 216.559 49.04 216.559 46.576V29.496C216.559 28.8987 216.41 28.3573 216.111 27.872C215.812 27.3867 215.42 26.9947 214.935 26.696C214.45 26.3973 213.908 26.248 213.311 26.248C212.714 26.248 212.172 26.3973 211.687 26.696C211.202 26.9947 210.81 27.3867 210.511 27.872C210.25 28.3573 210.119 28.8987 210.119 29.496V58H200.935V30.168C200.935 27.816 201.458 25.744 202.503 23.952C203.586 22.16 205.06 20.7413 206.927 19.696C208.831 18.6507 210.959 18.128 213.311 18.128C215.7 18.128 217.828 18.6507 219.695 19.696C221.562 20.7413 223.036 22.16 224.119 23.952C225.202 25.744 225.743 27.816 225.743 30.168V47.248C225.743 47.8827 225.892 48.4427 226.191 48.928C226.49 49.4133 226.863 49.8053 227.311 50.104C227.796 50.3653 228.319 50.496 228.879 50.496C229.476 50.496 230.018 50.3653 230.503 50.104C231.026 49.8053 231.436 49.4133 231.735 48.928C232.034 48.4427 232.183 47.8827 232.183 47.248V30.168C232.183 27.816 232.724 25.744 233.807 23.952C234.89 22.16 236.364 20.7413 238.231 19.696C240.135 18.6507 242.244 18.128 244.559 18.128C246.948 18.128 249.058 18.6507 250.887 19.696C252.754 20.7413 254.228 22.16 255.311 23.952C256.394 25.744 256.935 27.816 256.935 30.168V58H247.751V29.44C247.751 28.8427 247.602 28.32 247.303 27.872C247.042 27.3867 246.668 26.9947 246.183 26.696C245.698 26.3973 245.156 26.248 244.559 26.248C243.999 26.248 243.458 26.3973 242.935 26.696C242.45 26.9947 242.058 27.3867 241.759 27.872C241.46 28.32 241.311 28.8427 241.311 29.44V46.576C241.311 49.04 240.751 51.168 239.631 52.96C238.511 54.752 237.018 56.152 235.151 57.16C233.284 58.168 231.212 58.672 228.935 58.672Z" fill="#0090FF"/>
<path d="M277.565 58.672C275.027 58.672 272.787 58.0187 270.845 56.712C268.904 55.4053 267.392 53.6507 266.309 51.448C265.227 49.208 264.685 46.688 264.685 43.888C264.685 40.976 265.32 38.3813 266.589 36.104C267.859 33.7893 269.651 31.96 271.965 30.616C274.317 29.272 277.08 28.6 280.253 28.6C283.464 28.6 286.189 29.272 288.429 30.616C290.707 31.9227 292.443 33.7333 293.637 36.048C294.869 38.3253 295.485 40.8827 295.485 43.72V58H286.973V53.408H286.749C286.227 54.416 285.555 55.3307 284.733 56.152C283.912 56.936 282.904 57.552 281.709 58C280.552 58.448 279.171 58.672 277.565 58.672ZM280.141 51.168C281.448 51.168 282.587 50.8507 283.557 50.216C284.565 49.544 285.331 48.6293 285.853 47.472C286.376 46.3147 286.637 45.0267 286.637 43.608C286.637 42.2267 286.376 40.976 285.853 39.856C285.331 38.736 284.565 37.8587 283.557 37.224C282.587 36.552 281.448 36.216 280.141 36.216C278.797 36.216 277.621 36.552 276.613 37.224C275.605 37.8587 274.84 38.736 274.317 39.856C273.795 40.976 273.533 42.2267 273.533 43.608C273.533 45.0267 273.795 46.3147 274.317 47.472C274.84 48.6293 275.605 49.544 276.613 50.216C277.621 50.8507 278.797 51.168 280.141 51.168Z" fill="#0090FF"/>
<path d="M304.48 58V37.728C304.48 35.1147 305.227 33.0613 306.72 31.568C308.214 30.0747 310.286 29.328 312.936 29.328H321.28V36.384H315.064C314.542 36.384 314.094 36.5707 313.72 36.944C313.347 37.28 313.16 37.728 313.16 38.288V58H304.48Z" fill="#0090FF"/>
<path d="M327.957 58V17.12H336.637V40.136H340.445L346.997 29.272H356.685L348.957 41.256C351.197 42.1893 352.933 43.6267 354.165 45.568C355.435 47.472 356.069 49.712 356.069 52.288V58H347.333V52.288C347.333 51.2427 347.072 50.3093 346.549 49.488C346.064 48.6293 345.411 47.9573 344.589 47.472C343.768 46.9867 342.835 46.744 341.789 46.744H336.637V58H327.957Z" fill="#0090FF"/>
<path d="M379.453 58C376.205 58 373.349 57.4027 370.885 56.208C368.421 54.976 366.498 53.296 365.117 51.168C363.773 49.0027 363.101 46.5013 363.101 43.664C363.101 40.528 363.754 37.84 365.061 35.6C366.368 33.36 368.104 31.6427 370.269 30.448C372.472 29.216 374.898 28.6 377.549 28.6C380.573 28.6 383.093 29.2347 385.109 30.504C387.162 31.7733 388.712 33.5093 389.757 35.712C390.802 37.8773 391.325 40.36 391.325 43.16C391.325 43.6453 391.288 44.224 391.213 44.896C391.176 45.5307 391.12 46.0347 391.045 46.408H372.229C372.453 47.3787 372.882 48.2 373.517 48.872C374.152 49.544 374.954 50.048 375.925 50.384C376.896 50.6827 377.978 50.832 379.173 50.832H387.965V58H379.453ZM372.005 40.976H382.925C382.85 40.3787 382.738 39.8 382.589 39.24C382.44 38.68 382.197 38.1947 381.861 37.784C381.562 37.336 381.208 36.9627 380.797 36.664C380.386 36.328 379.901 36.0667 379.341 35.88C378.818 35.6933 378.221 35.6 377.549 35.6C376.69 35.6 375.925 35.7493 375.253 36.048C374.581 36.3467 374.021 36.7573 373.573 37.28C373.125 37.7653 372.77 38.344 372.509 39.016C372.285 39.6507 372.117 40.304 372.005 40.976Z" fill="#0090FF"/>
<path d="M409.71 58C407.06 58 404.988 57.2533 403.494 55.76C402.001 54.2293 401.254 52.176 401.254 49.6V22.272H409.99V49.096C409.99 49.544 410.14 49.936 410.438 50.272C410.774 50.5707 411.166 50.72 411.614 50.72H417.886V58H409.71ZM396.55 36.384V29.272H417.886V36.384H396.55Z" fill="#0090FF"/>
<path d="M471.386 58.672C469.109 58.672 467.019 58.168 465.115 57.16C463.248 56.152 461.754 54.752 460.634 52.96C459.552 51.168 459.01 49.04 459.01 46.576V29.496C459.01 28.8987 458.861 28.3573 458.562 27.872C458.264 27.3867 457.872 26.9947 457.386 26.696C456.901 26.3973 456.36 26.248 455.762 26.248C455.165 26.248 454.624 26.3973 454.138 26.696C453.653 26.9947 453.261 27.3867 452.962 27.872C452.701 28.3573 452.57 28.8987 452.57 29.496V58H443.386V30.168C443.386 27.816 443.909 25.744 444.954 23.952C446.037 22.16 447.512 20.7413 449.378 19.696C451.282 18.6507 453.41 18.128 455.762 18.128C458.152 18.128 460.28 18.6507 462.146 19.696C464.013 20.7413 465.488 22.16 466.57 23.952C467.653 25.744 468.194 27.816 468.194 30.168V47.248C468.194 47.8827 468.344 48.4427 468.642 48.928C468.941 49.4133 469.314 49.8053 469.762 50.104C470.248 50.3653 470.77 50.496 471.33 50.496C471.928 50.496 472.469 50.3653 472.954 50.104C473.477 49.8053 473.888 49.4133 474.186 48.928C474.485 48.4427 474.634 47.8827 474.634 47.248V30.168C474.634 27.816 475.176 25.744 476.258 23.952C477.341 22.16 478.816 20.7413 480.682 19.696C482.586 18.6507 484.696 18.128 487.01 18.128C489.4 18.128 491.509 18.6507 493.339 19.696C495.205 20.7413 496.68 22.16 497.762 23.952C498.845 25.744 499.386 27.816 499.386 30.168V58H490.202V29.44C490.202 28.8427 490.053 28.32 489.754 27.872C489.493 27.3867 489.12 26.9947 488.634 26.696C488.149 26.3973 487.608 26.248 487.01 26.248C486.45 26.248 485.909 26.3973 485.386 26.696C484.901 26.9947 484.509 27.3867 484.21 27.872C483.912 28.32 483.762 28.8427 483.762 29.44V46.576C483.762 49.04 483.202 51.168 482.082 52.96C480.962 54.752 479.469 56.152 477.602 57.16C475.736 58.168 473.664 58.672 471.386 58.672Z" fill="#0090FF"/>
<path d="M520.017 58.672C517.478 58.672 515.238 58.0187 513.297 56.712C511.355 55.4053 509.844 53.6507 508.761 51.448C507.678 49.208 507.137 46.688 507.137 43.888C507.137 40.976 507.771 38.3813 509.041 36.104C510.31 33.7893 512.102 31.96 514.417 30.616C516.769 29.272 519.532 28.6 522.705 28.6C525.916 28.6 528.641 29.272 530.881 30.616C533.158 31.9227 534.894 33.7333 536.089 36.048C537.321 38.3253 537.937 40.8827 537.937 43.72V58H529.425V53.408H529.201C528.678 54.416 528.006 55.3307 527.185 56.152C526.363 56.936 525.355 57.552 524.161 58C523.003 58.448 521.622 58.672 520.017 58.672ZM522.593 51.168C523.9 51.168 525.038 50.8507 526.009 50.216C527.017 49.544 527.782 48.6293 528.305 47.472C528.827 46.3147 529.089 45.0267 529.089 43.608C529.089 42.2267 528.827 40.976 528.305 39.856C527.782 38.736 527.017 37.8587 526.009 37.224C525.038 36.552 523.9 36.216 522.593 36.216C521.249 36.216 520.073 36.552 519.065 37.224C518.057 37.8587 517.291 38.736 516.769 39.856C516.246 40.976 515.985 42.2267 515.985 43.608C515.985 45.0267 516.246 46.3147 516.769 47.472C517.291 48.6293 518.057 49.544 519.065 50.216C520.073 50.8507 521.249 51.168 522.593 51.168Z" fill="#0090FF"/>
<path d="M547.156 58V17.12H555.836V40.136H559.644L566.196 29.272H575.884L568.156 41.256C570.396 42.1893 572.132 43.6267 573.364 45.568C574.633 47.472 575.268 49.712 575.268 52.288V58H566.532V52.288C566.532 51.2427 566.27 50.3093 565.748 49.488C565.262 48.6293 564.609 47.9573 563.788 47.472C562.966 46.9867 562.033 46.744 560.988 46.744H555.836V58H547.156Z" fill="#0090FF"/>
<path d="M598.651 58C595.403 58 592.547 57.4027 590.083 56.208C587.619 54.976 585.697 53.296 584.315 51.168C582.971 49.0027 582.299 46.5013 582.299 43.664C582.299 40.528 582.953 37.84 584.259 35.6C585.566 33.36 587.302 31.6427 589.467 30.448C591.67 29.216 594.097 28.6 596.747 28.6C599.771 28.6 602.291 29.2347 604.307 30.504C606.361 31.7733 607.91 33.5093 608.955 35.712C610.001 37.8773 610.523 40.36 610.523 43.16C610.523 43.6453 610.486 44.224 610.411 44.896C610.374 45.5307 610.318 46.0347 610.243 46.408H591.427C591.651 47.3787 592.081 48.2 592.715 48.872C593.35 49.544 594.153 50.048 595.123 50.384C596.094 50.6827 597.177 50.832 598.371 50.832H607.163V58H598.651ZM591.203 40.976H602.123C602.049 40.3787 601.937 39.8 601.787 39.24C601.638 38.68 601.395 38.1947 601.059 37.784C600.761 37.336 600.406 36.9627 599.995 36.664C599.585 36.328 599.099 36.0667 598.539 35.88C598.017 35.6933 597.419 35.6 596.747 35.6C595.889 35.6 595.123 35.7493 594.451 36.048C593.779 36.3467 593.219 36.7573 592.771 37.28C592.323 37.7653 591.969 38.344 591.707 39.016C591.483 39.6507 591.315 40.304 591.203 40.976Z" fill="#0090FF"/>
<path d="M618.157 58V37.728C618.157 35.1147 618.903 33.0613 620.397 31.568C621.89 30.0747 623.962 29.328 626.613 29.328H634.957V36.384H628.741C628.218 36.384 627.77 36.5707 627.397 36.944C627.023 37.28 626.837 37.728 626.837 38.288V58H618.157Z" fill="#0090FF"/>
<path d="M76.9346 46.0397L69.8082 6.39126C69.4861 4.59718 68.5515 2.97447 67.1674 1.80637C65.7834 0.638266 64.0377 -0.00105078 62.2353 1.29641e-06H14.7648C12.9609 -0.000108353 11.2143 0.640447 9.82955 1.80992C8.44483 2.97939 7.50994 4.60355 7.18795 6.39905L0.0654498 46.0397L0.1386 46.0514C0.0924001 46.2851 0 46.4954 0 46.7368V66.2105C0 70.5064 3.45345 74 7.7 74H69.3C73.5466 74 77 70.5064 77 66.2105V46.7368C77 46.4915 76.9076 46.2851 76.8652 46.0514L76.9346 46.0397ZM14.7648 7.78947H62.2391L68.5415 42.8421H8.4623L14.7648 7.78947ZM7.7 66.2105V50.6316H69.3L69.3077 66.2105H7.7Z" fill="#0090FF"/>
<path d="M57.75 54.5263H65.45V62.3158H57.75V54.5263ZM46.2 54.5263H53.9V62.3158H46.2V54.5263Z" fill="#0090FF"/>
</svg>
