<svg width="20" height="20" viewBox="0 0 20 20" fill="none" xmlns="http://www.w3.org/2000/svg">
<g clip-path="url(#clip0_7790_7413)">
<path d="M9.99999 4.26129C11.8691 4.26129 12.0905 4.2684 12.8286 4.30208C13.5111 4.33323 13.8817 4.44726 14.1284 4.5431C14.4551 4.67008 14.6883 4.8218 14.9333 5.06674C15.1782 5.31167 15.3299 5.54489 15.4569 5.8716C15.5527 6.11829 15.6668 6.48893 15.6979 7.1714C15.7316 7.90955 15.7387 8.13092 15.7387 10C15.7387 11.8691 15.7316 12.0905 15.6979 12.8286C15.6668 13.5111 15.5527 13.8817 15.4569 14.1284C15.3299 14.4551 15.1782 14.6884 14.9333 14.9333C14.6883 15.1782 14.4551 15.3299 14.1284 15.4569C13.8817 15.5528 13.5111 15.6668 12.8286 15.698C12.0906 15.7316 11.8692 15.7387 9.99999 15.7387C8.13079 15.7387 7.90941 15.7316 7.1714 15.698C6.48891 15.6668 6.11826 15.5528 5.8716 15.4569C5.54486 15.3299 5.31165 15.1782 5.06671 14.9333C4.82177 14.6884 4.67005 14.4551 4.5431 14.1284C4.44723 13.8817 4.3332 13.5111 4.30205 12.8286C4.26837 12.0905 4.26126 11.8691 4.26126 10C4.26126 8.13092 4.26837 7.90955 4.30205 7.17143C4.3332 6.48893 4.44723 6.11829 4.5431 5.8716C4.67005 5.54489 4.82177 5.31167 5.06671 5.06674C5.31165 4.8218 5.54486 4.67008 5.8716 4.5431C6.11826 4.44726 6.48891 4.33323 7.17137 4.30208C7.90952 4.2684 8.1309 4.26129 9.99999 4.26129ZM9.99999 3C8.09889 3 7.86053 3.00806 7.11391 3.04212C6.36881 3.07614 5.85999 3.19445 5.41471 3.3675C4.95439 3.54639 4.56402 3.78575 4.17487 4.1749C3.78572 4.56405 3.54637 4.95442 3.36748 5.41473C3.19442 5.86001 3.07611 6.36884 3.0421 7.11394C3.00803 7.86053 3 8.09891 3 10C3 11.9011 3.00803 12.1395 3.0421 12.8861C3.07611 13.6312 3.19442 14.14 3.36748 14.5853C3.54637 15.0456 3.78572 15.436 4.17487 15.8251C4.56402 16.2143 4.95439 16.4536 5.41471 16.6325C5.85999 16.8056 6.36881 16.9239 7.11391 16.9579C7.86053 16.992 8.09889 17 9.99999 17C11.9011 17 12.1395 16.992 12.8861 16.9579C13.6312 16.9239 14.14 16.8056 14.5853 16.6325C15.0456 16.4536 15.436 16.2143 15.8251 15.8251C16.2143 15.436 16.4536 15.0456 16.6325 14.5853C16.8055 14.14 16.9239 13.6312 16.9579 12.8861C16.9919 12.1395 17 11.9011 17 10C17 8.09891 16.9919 7.86053 16.9579 7.11394C16.9239 6.36884 16.8055 5.86001 16.6325 5.41473C16.4536 4.95442 16.2143 4.56405 15.8251 4.1749C15.436 3.78575 15.0456 3.54639 14.5853 3.3675C14.14 3.19445 13.6312 3.07614 12.8861 3.04212C12.1395 3.00806 11.9011 3 9.99999 3ZM9.99999 6.40541C8.01475 6.40541 6.40538 8.01478 6.40538 10C6.40538 11.9853 8.01475 13.5946 9.99999 13.5946C11.9852 13.5946 13.5946 11.9853 13.5946 10C13.5946 8.01478 11.9852 6.40541 9.99999 6.40541ZM9.99999 12.3334C8.71133 12.3334 7.66664 11.2887 7.66664 10C7.66664 8.71136 8.71133 7.66667 9.99999 7.66667C11.2886 7.66667 12.3333 8.71136 12.3333 10C12.3333 11.2887 11.2886 12.3334 9.99999 12.3334ZM14.5766 6.26339C14.5766 6.72731 14.2005 7.10341 13.7366 7.10341C13.2727 7.10341 12.8966 6.72731 12.8966 6.26339C12.8966 5.79947 13.2727 5.4234 13.7366 5.4234C14.2005 5.4234 14.5766 5.79947 14.5766 6.26339Z" fill="white"/>
</g>
<defs>
<clipPath id="clip0_7790_7413">
<rect width="14" height="14" fill="white" transform="translate(3 3)"/>
</clipPath>
</defs>
</svg>
