<svg width="20" height="20" viewBox="0 0 20 20" fill="none" xmlns="http://www.w3.org/2000/svg">
<path fill-rule="evenodd" clip-rule="evenodd" d="M8.50058 8.23712H10.6671V9.31629C10.9792 8.69562 11.7795 8.13796 12.9817 8.13796C15.2865 8.13796 15.8337 9.37346 15.8337 11.6403V15.8385H13.5003V12.1565C13.5003 10.8656 13.1882 10.1376 12.3937 10.1376C11.2918 10.1376 10.8339 10.9222 10.8339 12.156V15.8385H8.50058V8.23712ZM4.49949 15.7394H6.83283V8.13796H4.49949V15.7394ZM7.16708 5.65938C7.16716 5.85495 7.12837 6.0486 7.05297 6.22905C6.97756 6.40951 6.86704 6.57317 6.72783 6.71054C6.44573 6.99091 6.06388 7.14784 5.66616 7.14688C5.26914 7.14661 4.88817 6.99007 4.60566 6.71113C4.46695 6.57329 4.3568 6.40944 4.28153 6.22896C4.20625 6.04848 4.16733 5.85492 4.16699 5.65938C4.16699 5.26446 4.32449 4.88646 4.60624 4.60763C4.88851 4.3283 5.26963 4.1717 5.66674 4.17188C6.06458 4.17188 6.44608 4.32879 6.72783 4.60763C7.00899 4.88646 7.16708 5.26446 7.16708 5.65938Z" fill="white"/>
</svg>
