<svg width="20" height="20" viewBox="0 0 20 20" fill="none" xmlns="http://www.w3.org/2000/svg">
<path d="M11.0013 10.003C11.0013 12.5028 8.9863 14.5294 6.50065 14.5294C4.01501 14.5294 2 12.5028 2 10.003C2 7.5031 4.01501 5.47656 6.50065 5.47656C8.9863 5.47656 11.0013 7.5031 11.0013 10.003Z" fill="white"/>
<path d="M16 10.003C16 12.3566 14.995 14.2646 13.7552 14.2646C12.5155 14.2646 11.5105 12.3566 11.5105 10.003C11.5105 7.64937 12.5155 5.74137 13.7552 5.74137C14.995 5.74137 16 7.64937 16 10.003Z" fill="white"/>
<path d="M18 10.0029C18 12.1007 17.646 13.8013 17.2094 13.8013C16.7727 13.8013 16.4188 12.1007 16.4188 10.0029C16.4188 7.90516 16.7727 6.20459 17.2094 6.20459C17.646 6.20459 18 7.90516 18 10.0029Z" fill="white"/>
</svg>
