<svg width="20" height="20" viewBox="0 0 20 20" fill="none" xmlns="http://www.w3.org/2000/svg">
<g clip-path="url(#clip0_7790_7388)">
<path fill-rule="evenodd" clip-rule="evenodd" d="M14.5362 5.58415C14.6804 5.52347 14.8382 5.50255 14.9931 5.52355C15.1481 5.54455 15.2946 5.6067 15.4175 5.70355C15.5403 5.80039 15.6349 5.92838 15.6914 6.07419C15.748 6.22001 15.7644 6.37832 15.7391 6.53265L14.4161 14.5576C14.2877 15.3316 13.4384 15.7756 12.7285 15.39C12.1346 15.0674 11.2526 14.5704 10.4593 14.0518C10.0626 13.7922 8.84755 12.961 8.99689 12.3695C9.12522 11.8637 11.1669 9.96323 12.3336 8.83331C12.7915 8.3894 12.5826 8.13331 12.0419 8.54165C10.6985 9.55548 8.54305 11.0972 7.83022 11.5312C7.20139 11.9139 6.87355 11.9792 6.48155 11.9139C5.76638 11.7949 5.10314 11.6106 4.5618 11.386C3.8303 11.0826 3.86589 10.077 4.56122 9.78415L14.5362 5.58415Z" fill="white"/>
</g>
<defs>
<clipPath id="clip0_7790_7388">
<rect width="14" height="14" fill="white" transform="translate(3 3)"/>
</clipPath>
</defs>
</svg>
