<svg width="20" height="20" viewBox="0 0 20 20" fill="none" xmlns="http://www.w3.org/2000/svg">
<path d="M13.897 5.33594H6.10234C4.57301 5.33594 3.33301 6.5626 3.33301 8.0746V11.9279C3.33301 13.4413 4.57301 14.6666 6.10234 14.6666H13.897C15.4263 14.6666 16.6663 13.4399 16.6663 11.9279V8.0746C16.6663 6.56127 15.4263 5.33594 13.897 5.33594ZM12.025 10.1893L8.37834 11.9093C8.35603 11.9198 8.33143 11.9246 8.3068 11.9231C8.28217 11.9216 8.25831 11.9139 8.23744 11.9007C8.21657 11.8876 8.19936 11.8694 8.1874 11.8478C8.17543 11.8262 8.16911 11.8019 8.16901 11.7773V8.2306C8.16923 8.20561 8.17583 8.18109 8.1882 8.15937C8.20056 8.13765 8.21826 8.11945 8.23963 8.10649C8.26101 8.09353 8.28533 8.08625 8.31031 8.08534C8.33528 8.08443 8.36008 8.08991 8.38234 8.10127L12.0277 9.92794C12.0516 9.94046 12.0717 9.95937 12.0856 9.98258C12.0995 10.0058 12.1067 10.0324 12.1064 10.0594C12.1061 10.0865 12.0984 10.1129 12.084 10.1358C12.0696 10.1587 12.0492 10.1772 12.025 10.1893Z" fill="white"/>
</svg>
